<svg width="151" height="75" viewBox="0 0 151 75" fill="none" xmlns="http://www.w3.org/2000/svg">
<g clip-path="url(#clip0_203_39)">
<path d="M20.0182 26.16V25.58L20.4982 25.53C20.5982 25.5167 20.6715 25.4767 20.7182 25.41C20.7715 25.3433 20.7982 25.2233 20.7982 25.05V20.18C20.7982 19.9333 20.7749 19.77 20.7282 19.69C20.6815 19.61 20.5782 19.5633 20.4182 19.55L19.9582 19.5L20.0382 18.91L21.5882 18.8L21.7382 18.87L21.8082 19.75H21.8482C22.0015 19.5233 22.1682 19.3367 22.3482 19.19C22.5282 19.0367 22.7282 18.9233 22.9482 18.85C23.1749 18.77 23.4249 18.73 23.6982 18.73C24.1182 18.73 24.4782 18.83 24.7782 19.03C25.0849 19.2233 25.3182 19.51 25.4782 19.89C25.6449 20.2633 25.7282 20.7167 25.7282 21.25C25.7282 21.8567 25.6349 22.3767 25.4482 22.81C25.2615 23.2367 24.9849 23.5667 24.6182 23.8C24.2515 24.0267 23.8082 24.14 23.2882 24.14C23.0415 24.14 22.7949 24.11 22.5482 24.05C22.3015 23.9967 22.0982 23.92 21.9382 23.82V25.03C21.9382 25.19 21.9615 25.3067 22.0082 25.38C22.0549 25.4533 22.1415 25.5 22.2682 25.52L22.9282 25.59V26.16H20.0182ZM23.1582 23.37C23.4449 23.37 23.6882 23.2967 23.8882 23.15C24.0949 22.9967 24.2515 22.7733 24.3582 22.48C24.4649 22.18 24.5182 21.8167 24.5182 21.39C24.5182 20.9767 24.4715 20.6367 24.3782 20.37C24.2849 20.0967 24.1482 19.8933 23.9682 19.76C23.7949 19.62 23.5715 19.55 23.2982 19.55C23.0115 19.55 22.7682 19.6067 22.5682 19.72C22.3682 19.8333 22.2115 19.9933 22.0982 20.2C21.9915 20.4067 21.9382 20.6533 21.9382 20.94V22.99C22.0649 23.1033 22.2415 23.1967 22.4682 23.27C22.7015 23.3367 22.9315 23.37 23.1582 23.37ZM26.6926 24V23.43L27.1726 23.36C27.2859 23.3467 27.3592 23.3067 27.3926 23.24C27.4259 23.1733 27.4426 23.0533 27.4426 22.88V20.16C27.4426 19.9333 27.4226 19.78 27.3826 19.7C27.3426 19.62 27.2459 19.5733 27.0926 19.56L26.6026 19.5L26.6726 18.91L28.2226 18.8L28.3626 18.87L28.4526 19.78H28.4926C28.6859 19.44 28.9159 19.18 29.1826 19C29.4492 18.82 29.7426 18.73 30.0626 18.73C30.3959 18.73 30.6592 18.82 30.8526 19C31.0526 19.18 31.1526 19.4233 31.1526 19.73C31.1526 19.9167 31.1259 20.0733 31.0726 20.2C31.0192 20.3267 30.9359 20.4267 30.8226 20.5C30.7159 20.5667 30.5792 20.6 30.4126 20.6C30.2059 20.6 30.0492 20.5567 29.9426 20.47C29.8359 20.3833 29.7826 20.2667 29.7826 20.12C29.7826 20.0733 29.7859 20.0233 29.7926 19.97C29.8059 19.9167 29.8259 19.8567 29.8526 19.79C29.8859 19.7167 29.9226 19.6333 29.9626 19.54C29.8092 19.4733 29.6526 19.4667 29.4926 19.52C29.3326 19.5667 29.1826 19.6567 29.0426 19.79C28.9092 19.9233 28.7992 20.09 28.7126 20.29C28.6259 20.4833 28.5826 20.6933 28.5826 20.92V22.9C28.5826 23.06 28.5992 23.1733 28.6326 23.24C28.6659 23.3 28.7426 23.3367 28.8626 23.35L29.7026 23.44V24H26.6926ZM31.7091 24V23.42L32.2791 23.36C32.4124 23.34 32.4957 23.2967 32.5291 23.23C32.5691 23.1633 32.5891 23.0367 32.5891 22.85V20.19C32.5891 19.9567 32.5657 19.8 32.5191 19.72C32.4791 19.6333 32.3791 19.5833 32.2191 19.57L31.7291 19.51L31.7991 18.91L33.5991 18.82L33.7291 18.88V22.88C33.7291 23.0133 33.7457 23.1233 33.7791 23.21C33.8124 23.29 33.9024 23.34 34.0491 23.36L34.6191 23.43V24H31.7091ZM33.0191 17.85C32.7857 17.85 32.5957 17.7833 32.4491 17.65C32.3091 17.5167 32.2391 17.3433 32.2391 17.13C32.2391 16.9167 32.3091 16.7433 32.4491 16.61C32.5957 16.4767 32.7857 16.41 33.0191 16.41C33.2524 16.41 33.4391 16.4767 33.5791 16.61C33.7257 16.7367 33.7991 16.9067 33.7991 17.12C33.7991 17.34 33.7257 17.5167 33.5791 17.65C33.4391 17.7833 33.2524 17.85 33.0191 17.85ZM35.4328 24V23.43L35.9128 23.37C36.0195 23.35 36.0895 23.31 36.1228 23.25C36.1628 23.19 36.1828 23.07 36.1828 22.89V20.16C36.1828 19.9267 36.1628 19.7733 36.1228 19.7C36.0828 19.62 35.9861 19.57 35.8328 19.55L35.3428 19.5L35.4128 18.91L36.9828 18.8L37.1228 18.87L37.1928 19.77H37.2328C37.3595 19.5567 37.5095 19.3733 37.6828 19.22C37.8628 19.06 38.0628 18.94 38.2828 18.86C38.5095 18.7733 38.7428 18.73 38.9828 18.73C39.3961 18.73 39.7295 18.82 39.9828 19C40.2428 19.1733 40.4261 19.43 40.5328 19.77C40.6928 19.45 40.9328 19.1967 41.2528 19.01C41.5795 18.8233 41.9228 18.73 42.2828 18.73C42.6361 18.73 42.9328 18.8 43.1728 18.94C43.4195 19.0733 43.6028 19.2667 43.7228 19.52C43.8495 19.7733 43.9128 20.08 43.9128 20.44V22.97C43.9128 23.11 43.9328 23.21 43.9728 23.27C44.0128 23.3233 44.0995 23.36 44.2328 23.38L44.7028 23.43V24H42.1228V23.44L42.4628 23.39C42.5895 23.3633 42.6728 23.3233 42.7128 23.27C42.7528 23.2167 42.7728 23.1133 42.7728 22.96V20.77C42.7728 20.49 42.7428 20.2633 42.6828 20.09C42.6295 19.9167 42.5395 19.79 42.4128 19.71C42.2861 19.6233 42.1095 19.58 41.8828 19.58C41.6361 19.58 41.4161 19.6333 41.2228 19.74C41.0361 19.8467 40.8895 19.9967 40.7828 20.19C40.6761 20.3833 40.6228 20.6133 40.6228 20.88V22.93C40.6228 23.09 40.6395 23.2 40.6728 23.26C40.7061 23.3133 40.7795 23.35 40.8928 23.37L41.3028 23.44V24H38.8328V23.44L39.1728 23.39C39.2861 23.3633 39.3628 23.3267 39.4028 23.28C39.4495 23.2267 39.4728 23.12 39.4728 22.96V20.77C39.4728 20.4833 39.4461 20.2533 39.3928 20.08C39.3395 19.9067 39.2461 19.78 39.1128 19.7C38.9861 19.62 38.8095 19.58 38.5828 19.58C38.3361 19.58 38.1195 19.6333 37.9328 19.74C37.7461 19.8467 37.5961 19.9967 37.4828 20.19C37.3761 20.3833 37.3228 20.6133 37.3228 20.88V22.93C37.3228 23.0767 37.3395 23.18 37.3728 23.24C37.4061 23.3 37.4761 23.34 37.5828 23.36L38.0028 23.44V24H35.4328ZM47.9907 24.14C47.464 24.14 47.0107 24.0333 46.6307 23.82C46.2574 23.6067 45.9674 23.3033 45.7607 22.91C45.5607 22.5167 45.4607 22.06 45.4607 21.54C45.4607 20.9533 45.5674 20.4533 45.7807 20.04C46.0007 19.62 46.304 19.2967 46.6907 19.07C47.084 18.8433 47.5374 18.73 48.0507 18.73C48.4574 18.73 48.8107 18.8033 49.1107 18.95C49.4107 19.0967 49.6407 19.31 49.8007 19.59C49.9674 19.8633 50.0507 20.19 50.0507 20.57C50.0507 20.73 50.0407 20.8933 50.0207 21.06C50.0007 21.2267 49.9707 21.3967 49.9307 21.57H46.6707C46.684 21.93 46.7574 22.2367 46.8907 22.49C47.0307 22.7433 47.2174 22.9333 47.4507 23.06C47.684 23.1867 47.9574 23.25 48.2707 23.25C48.544 23.25 48.804 23.2 49.0507 23.1C49.304 22.9933 49.5307 22.85 49.7307 22.67L50.1307 23.11C49.884 23.4233 49.5707 23.6733 49.1907 23.86C48.8174 24.0467 48.4174 24.14 47.9907 24.14ZM46.6707 20.91H48.8907C48.904 20.8367 48.9107 20.7633 48.9107 20.69C48.9174 20.6167 48.9207 20.54 48.9207 20.46C48.9207 20.1133 48.8374 19.8467 48.6707 19.66C48.5107 19.4733 48.2707 19.38 47.9507 19.38C47.704 19.38 47.4907 19.44 47.3107 19.56C47.1307 19.68 46.9874 19.8533 46.8807 20.08C46.774 20.3067 46.704 20.5833 46.6707 20.91ZM50.9473 24V23.42L51.5173 23.36C51.6507 23.34 51.734 23.2967 51.7673 23.23C51.8073 23.1633 51.8273 23.0367 51.8273 22.85V20.19C51.8273 19.9567 51.804 19.8 51.7573 19.72C51.7173 19.6333 51.6173 19.5833 51.4573 19.57L50.9673 19.51L51.0373 18.91L52.8373 18.82L52.9673 18.88V22.88C52.9673 23.0133 52.984 23.1233 53.0173 23.21C53.0507 23.29 53.1407 23.34 53.2873 23.36L53.8573 23.43V24H50.9473ZM52.2573 17.85C52.024 17.85 51.834 17.7833 51.6873 17.65C51.5473 17.5167 51.4773 17.3433 51.4773 17.13C51.4773 16.9167 51.5473 16.7433 51.6873 16.61C51.834 16.4767 52.024 16.41 52.2573 16.41C52.4907 16.41 52.6773 16.4767 52.8173 16.61C52.964 16.7367 53.0373 16.9067 53.0373 17.12C53.0373 17.34 52.964 17.5167 52.8173 17.65C52.6773 17.7833 52.4907 17.85 52.2573 17.85ZM54.6711 24V23.43L55.1511 23.36C55.2644 23.3467 55.3378 23.3067 55.3711 23.24C55.4044 23.1733 55.4211 23.0533 55.4211 22.88V20.16C55.4211 19.9333 55.4011 19.78 55.3611 19.7C55.3211 19.62 55.2244 19.5733 55.0711 19.56L54.5811 19.5L54.6511 18.91L56.2011 18.8L56.3411 18.87L56.4311 19.78H56.4711C56.6644 19.44 56.8944 19.18 57.1611 19C57.4278 18.82 57.7211 18.73 58.0411 18.73C58.3744 18.73 58.6378 18.82 58.8311 19C59.0311 19.18 59.1311 19.4233 59.1311 19.73C59.1311 19.9167 59.1044 20.0733 59.0511 20.2C58.9978 20.3267 58.9144 20.4267 58.8011 20.5C58.6944 20.5667 58.5578 20.6 58.3911 20.6C58.1844 20.6 58.0278 20.5567 57.9211 20.47C57.8144 20.3833 57.7611 20.2667 57.7611 20.12C57.7611 20.0733 57.7644 20.0233 57.7711 19.97C57.7844 19.9167 57.8044 19.8567 57.8311 19.79C57.8644 19.7167 57.9011 19.6333 57.9411 19.54C57.7878 19.4733 57.6311 19.4667 57.4711 19.52C57.3111 19.5667 57.1611 19.6567 57.0211 19.79C56.8878 19.9233 56.7778 20.09 56.6911 20.29C56.6044 20.4833 56.5611 20.6933 56.5611 20.92V22.9C56.5611 23.06 56.5778 23.1733 56.6111 23.24C56.6444 23.3 56.7211 23.3367 56.8411 23.35L57.6811 23.44V24H54.6711ZM61.258 24.14C60.8114 24.14 60.4514 24.0167 60.178 23.77C59.9114 23.5167 59.778 23.1833 59.778 22.77C59.778 22.39 59.8747 22.0867 60.068 21.86C60.2614 21.6267 60.5747 21.4533 61.008 21.34C61.448 21.2267 62.0314 21.1533 62.758 21.12V20.44C62.758 20.1933 62.7247 19.9867 62.658 19.82C62.5914 19.6533 62.4814 19.5267 62.328 19.44C62.1747 19.3533 61.9647 19.31 61.698 19.31C61.5247 19.31 61.3514 19.3367 61.178 19.39C61.0114 19.4367 60.888 19.5 60.808 19.58C60.868 19.68 60.918 19.77 60.958 19.85C60.998 19.9233 61.0247 19.9867 61.038 20.04C61.058 20.0867 61.068 20.13 61.068 20.17C61.068 20.3033 61.008 20.4167 60.888 20.51C60.7747 20.6033 60.6247 20.65 60.438 20.65C60.238 20.65 60.0814 20.6 59.968 20.5C59.8614 20.4 59.808 20.2567 59.808 20.07C59.808 19.83 59.9014 19.61 60.088 19.41C60.2747 19.2033 60.5247 19.04 60.838 18.92C61.1514 18.7933 61.498 18.73 61.878 18.73C62.338 18.73 62.718 18.7967 63.018 18.93C63.318 19.0633 63.538 19.2667 63.678 19.54C63.8247 19.8133 63.898 20.1533 63.898 20.56V22.9C63.898 23.0467 63.9347 23.1567 64.008 23.23C64.0814 23.3033 64.1947 23.34 64.348 23.34C64.428 23.34 64.5047 23.3333 64.578 23.32C64.6514 23.3067 64.7314 23.2867 64.818 23.26L64.938 23.73C64.818 23.8367 64.658 23.93 64.458 24.01C64.2647 24.0967 64.0747 24.14 63.888 24.14C63.5814 24.14 63.3447 24.0667 63.178 23.92C63.0114 23.7667 62.908 23.5533 62.868 23.28C62.748 23.46 62.608 23.6167 62.448 23.75C62.2947 23.8767 62.118 23.9733 61.918 24.04C61.7247 24.1067 61.5047 24.14 61.258 24.14ZM61.718 23.37C61.918 23.37 62.0947 23.33 62.248 23.25C62.4014 23.1633 62.5247 23.0467 62.618 22.9C62.7114 22.7533 62.758 22.59 62.758 22.41V21.72C62.3447 21.72 62.0014 21.7533 61.728 21.82C61.4614 21.8867 61.2647 21.9867 61.138 22.12C61.0114 22.2533 60.948 22.4267 60.948 22.64C60.948 22.8667 61.0147 23.0467 61.148 23.18C61.288 23.3067 61.478 23.37 61.718 23.37ZM27.2178 37V36.42L27.7378 36.36C27.8645 36.3467 27.9478 36.3067 27.9878 36.24C28.0345 36.1733 28.0578 36.05 28.0578 35.87V32.58H27.2378V32.01L28.0678 31.9V31.54C28.0678 31.18 28.1078 30.8567 28.1878 30.57C28.2745 30.2767 28.3978 30.0267 28.5578 29.82C28.7245 29.6133 28.9311 29.4567 29.1778 29.35C29.4311 29.2367 29.7211 29.18 30.0478 29.18C30.3611 29.18 30.6311 29.2233 30.8578 29.31C31.0911 29.3967 31.2711 29.52 31.3978 29.68C31.5245 29.8333 31.5878 30.0167 31.5878 30.23C31.5878 30.4233 31.5278 30.5867 31.4078 30.72C31.2945 30.8467 31.1378 30.91 30.9378 30.91C30.7578 30.91 30.6145 30.8733 30.5078 30.8C30.4011 30.7267 30.3478 30.6233 30.3478 30.49C30.3478 30.4167 30.3645 30.34 30.3978 30.26C30.4311 30.1733 30.4945 30.05 30.5878 29.89C30.5145 29.8567 30.4311 29.83 30.3378 29.81C30.2445 29.7833 30.1445 29.77 30.0378 29.77C29.8378 29.77 29.6745 29.8167 29.5478 29.91C29.4278 30.0033 29.3378 30.1433 29.2778 30.33C29.2245 30.51 29.1978 30.74 29.1978 31.02V31.87H30.6878V32.58H29.1978V35.88C29.1978 36.04 29.2211 36.1567 29.2678 36.23C29.3145 36.2967 29.4078 36.3367 29.5478 36.35L30.3578 36.43V37H27.2178ZM33.811 37.14C33.2843 37.14 32.831 37.0333 32.451 36.82C32.0777 36.6067 31.7877 36.3033 31.581 35.91C31.381 35.5167 31.281 35.06 31.281 34.54C31.281 33.9533 31.3877 33.4533 31.601 33.04C31.821 32.62 32.1243 32.2967 32.511 32.07C32.9043 31.8433 33.3577 31.73 33.871 31.73C34.2777 31.73 34.631 31.8033 34.931 31.95C35.231 32.0967 35.461 32.31 35.621 32.59C35.7877 32.8633 35.871 33.19 35.871 33.57C35.871 33.73 35.861 33.8933 35.841 34.06C35.821 34.2267 35.791 34.3967 35.751 34.57H32.491C32.5043 34.93 32.5777 35.2367 32.711 35.49C32.851 35.7433 33.0377 35.9333 33.271 36.06C33.5043 36.1867 33.7777 36.25 34.091 36.25C34.3643 36.25 34.6243 36.2 34.871 36.1C35.1243 35.9933 35.351 35.85 35.551 35.67L35.951 36.11C35.7043 36.4233 35.391 36.6733 35.011 36.86C34.6377 37.0467 34.2377 37.14 33.811 37.14ZM32.491 33.91H34.711C34.7243 33.8367 34.731 33.7633 34.731 33.69C34.7377 33.6167 34.741 33.54 34.741 33.46C34.741 33.1133 34.6577 32.8467 34.491 32.66C34.331 32.4733 34.091 32.38 33.771 32.38C33.5243 32.38 33.311 32.44 33.131 32.56C32.951 32.68 32.8077 32.8533 32.701 33.08C32.5943 33.3067 32.5243 33.5833 32.491 33.91ZM36.7677 37V36.42L37.3377 36.36C37.471 36.34 37.5543 36.2967 37.5877 36.23C37.6277 36.1633 37.6477 36.0367 37.6477 35.85V33.19C37.6477 32.9567 37.6243 32.8 37.5777 32.72C37.5377 32.6333 37.4377 32.5833 37.2777 32.57L36.7877 32.51L36.8577 31.91L38.6577 31.82L38.7877 31.88V35.88C38.7877 36.0133 38.8043 36.1233 38.8377 36.21C38.871 36.29 38.961 36.34 39.1077 36.36L39.6777 36.43V37H36.7677ZM38.0777 30.85C37.8443 30.85 37.6543 30.7833 37.5077 30.65C37.3677 30.5167 37.2977 30.3433 37.2977 30.13C37.2977 29.9167 37.3677 29.7433 37.5077 29.61C37.6543 29.4767 37.8443 29.41 38.0777 29.41C38.311 29.41 38.4977 29.4767 38.6377 29.61C38.7843 29.7367 38.8577 29.9067 38.8577 30.12C38.8577 30.34 38.7843 30.5167 38.6377 30.65C38.4977 30.7833 38.311 30.85 38.0777 30.85ZM40.4914 37V36.43L40.9714 36.36C41.0847 36.3467 41.1581 36.3067 41.1914 36.24C41.2247 36.1733 41.2414 36.0533 41.2414 35.88V33.16C41.2414 32.9333 41.2214 32.78 41.1814 32.7C41.1414 32.62 41.0447 32.5733 40.8914 32.56L40.4014 32.5L40.4714 31.91L42.0214 31.8L42.1614 31.87L42.2514 32.78H42.2914C42.4847 32.44 42.7147 32.18 42.9814 32C43.2481 31.82 43.5414 31.73 43.8614 31.73C44.1947 31.73 44.4581 31.82 44.6514 32C44.8514 32.18 44.9514 32.4233 44.9514 32.73C44.9514 32.9167 44.9247 33.0733 44.8714 33.2C44.8181 33.3267 44.7347 33.4267 44.6214 33.5C44.5147 33.5667 44.3781 33.6 44.2114 33.6C44.0047 33.6 43.8481 33.5567 43.7414 33.47C43.6347 33.3833 43.5814 33.2667 43.5814 33.12C43.5814 33.0733 43.5847 33.0233 43.5914 32.97C43.6047 32.9167 43.6247 32.8567 43.6514 32.79C43.6847 32.7167 43.7214 32.6333 43.7614 32.54C43.6081 32.4733 43.4514 32.4667 43.2914 32.52C43.1314 32.5667 42.9814 32.6567 42.8414 32.79C42.7081 32.9233 42.5981 33.09 42.5114 33.29C42.4247 33.4833 42.3814 33.6933 42.3814 33.92V35.9C42.3814 36.06 42.3981 36.1733 42.4314 36.24C42.4647 36.3 42.5414 36.3367 42.6614 36.35L43.5014 36.44V37H40.4914ZM47.0784 37.14C46.6317 37.14 46.2717 37.0167 45.9984 36.77C45.7317 36.5167 45.5984 36.1833 45.5984 35.77C45.5984 35.39 45.695 35.0867 45.8884 34.86C46.0817 34.6267 46.395 34.4533 46.8284 34.34C47.2684 34.2267 47.8517 34.1533 48.5784 34.12V33.44C48.5784 33.1933 48.545 32.9867 48.4784 32.82C48.4117 32.6533 48.3017 32.5267 48.1484 32.44C47.995 32.3533 47.785 32.31 47.5184 32.31C47.345 32.31 47.1717 32.3367 46.9984 32.39C46.8317 32.4367 46.7084 32.5 46.6284 32.58C46.6884 32.68 46.7384 32.77 46.7784 32.85C46.8184 32.9233 46.845 32.9867 46.8584 33.04C46.8784 33.0867 46.8884 33.13 46.8884 33.17C46.8884 33.3033 46.8284 33.4167 46.7084 33.51C46.595 33.6033 46.445 33.65 46.2584 33.65C46.0584 33.65 45.9017 33.6 45.7884 33.5C45.6817 33.4 45.6284 33.2567 45.6284 33.07C45.6284 32.83 45.7217 32.61 45.9084 32.41C46.095 32.2033 46.345 32.04 46.6584 31.92C46.9717 31.7933 47.3184 31.73 47.6984 31.73C48.1584 31.73 48.5384 31.7967 48.8384 31.93C49.1384 32.0633 49.3584 32.2667 49.4984 32.54C49.645 32.8133 49.7184 33.1533 49.7184 33.56V35.9C49.7184 36.0467 49.755 36.1567 49.8284 36.23C49.9017 36.3033 50.015 36.34 50.1684 36.34C50.2484 36.34 50.325 36.3333 50.3984 36.32C50.4717 36.3067 50.5517 36.2867 50.6384 36.26L50.7584 36.73C50.6384 36.8367 50.4784 36.93 50.2784 37.01C50.085 37.0967 49.895 37.14 49.7084 37.14C49.4017 37.14 49.165 37.0667 48.9984 36.92C48.8317 36.7667 48.7284 36.5533 48.6884 36.28C48.5684 36.46 48.4284 36.6167 48.2684 36.75C48.115 36.8767 47.9384 36.9733 47.7384 37.04C47.545 37.1067 47.325 37.14 47.0784 37.14ZM47.5384 36.37C47.7384 36.37 47.915 36.33 48.0684 36.25C48.2217 36.1633 48.345 36.0467 48.4384 35.9C48.5317 35.7533 48.5784 35.59 48.5784 35.41V34.72C48.165 34.72 47.8217 34.7533 47.5484 34.82C47.2817 34.8867 47.085 34.9867 46.9584 35.12C46.8317 35.2533 46.7684 35.4267 46.7684 35.64C46.7684 35.8667 46.835 36.0467 46.9684 36.18C47.1084 36.3067 47.2984 36.37 47.5384 36.37ZM55.628 37.14C55.1747 37.14 54.788 37.04 54.468 36.84C54.148 36.64 53.9047 36.35 53.738 35.97C53.5714 35.5833 53.488 35.1233 53.488 34.59C53.488 34.0033 53.5914 33.4967 53.798 33.07C54.0047 32.6367 54.2947 32.3067 54.668 32.08C55.048 31.8467 55.5014 31.73 56.028 31.73C56.2614 31.73 56.488 31.76 56.708 31.82C56.9347 31.8733 57.1247 31.9467 57.278 32.04V30.63C57.278 30.41 57.2514 30.2633 57.198 30.19C57.1514 30.11 57.0347 30.06 56.848 30.04L56.358 29.98L56.428 29.39L58.298 29.34L58.418 29.46V35.94C58.418 36.0867 58.438 36.1933 58.478 36.26C58.518 36.32 58.6114 36.3633 58.758 36.39L59.248 36.46V37.03L57.528 37.09L57.388 36.29H57.338C57.198 36.4767 57.0414 36.6333 56.868 36.76C56.7014 36.8867 56.5147 36.98 56.308 37.04C56.1014 37.1067 55.8747 37.14 55.628 37.14ZM55.998 36.32C56.258 36.32 56.4814 36.26 56.668 36.14C56.8614 36.02 57.0114 35.8533 57.118 35.64C57.2247 35.42 57.278 35.17 57.278 34.89V32.88C57.118 32.7533 56.9347 32.66 56.728 32.6C56.5214 32.5333 56.3047 32.5 56.078 32.5C55.7714 32.5 55.5147 32.5733 55.308 32.72C55.1014 32.8667 54.9447 33.0867 54.838 33.38C54.738 33.6733 54.688 34.04 54.688 34.48C54.688 34.88 54.738 35.2167 54.838 35.49C54.938 35.7633 55.0847 35.97 55.278 36.11C55.478 36.25 55.718 36.32 55.998 36.32ZM62.4634 37.14C61.9367 37.14 61.4834 37.0333 61.1034 36.82C60.73 36.6067 60.44 36.3033 60.2334 35.91C60.0334 35.5167 59.9334 35.06 59.9334 34.54C59.9334 33.9533 60.04 33.4533 60.2534 33.04C60.4734 32.62 60.7767 32.2967 61.1634 32.07C61.5567 31.8433 62.01 31.73 62.5234 31.73C62.93 31.73 63.2834 31.8033 63.5834 31.95C63.8834 32.0967 64.1134 32.31 64.2734 32.59C64.44 32.8633 64.5234 33.19 64.5234 33.57C64.5234 33.73 64.5134 33.8933 64.4934 34.06C64.4734 34.2267 64.4434 34.3967 64.4034 34.57H61.1434C61.1567 34.93 61.23 35.2367 61.3634 35.49C61.5034 35.7433 61.69 35.9333 61.9234 36.06C62.1567 36.1867 62.43 36.25 62.7434 36.25C63.0167 36.25 63.2767 36.2 63.5234 36.1C63.7767 35.9933 64.0034 35.85 64.2034 35.67L64.6034 36.11C64.3567 36.4233 64.0434 36.6733 63.6634 36.86C63.29 37.0467 62.89 37.14 62.4634 37.14ZM61.1434 33.91H63.3634C63.3767 33.8367 63.3834 33.7633 63.3834 33.69C63.39 33.6167 63.3934 33.54 63.3934 33.46C63.3934 33.1133 63.31 32.8467 63.1434 32.66C62.9834 32.4733 62.7434 32.38 62.4234 32.38C62.1767 32.38 61.9634 32.44 61.7834 32.56C61.6034 32.68 61.46 32.8533 61.3534 33.08C61.2467 33.3067 61.1767 33.5833 61.1434 33.91ZM22.1983 50V49.42L22.7183 49.36C22.8516 49.34 22.9349 49.3 22.9683 49.24C23.0083 49.1733 23.0283 49.0467 23.0283 48.86V43.66C23.0283 43.4333 23.0016 43.2833 22.9483 43.21C22.9016 43.13 22.7849 43.08 22.5983 43.06L22.1283 43L22.1883 42.4L24.0483 42.34L24.1683 42.45V48.9C24.1683 49.04 24.1849 49.1467 24.2183 49.22C24.2583 49.2933 24.3483 49.34 24.4883 49.36L25.0183 49.43V50H22.1983ZM25.7423 50V49.42L26.3123 49.36C26.4456 49.34 26.5289 49.2967 26.5623 49.23C26.6023 49.1633 26.6223 49.0367 26.6223 48.85V46.19C26.6223 45.9567 26.5989 45.8 26.5523 45.72C26.5123 45.6333 26.4123 45.5833 26.2523 45.57L25.7623 45.51L25.8323 44.91L27.6323 44.82L27.7623 44.88V48.88C27.7623 49.0133 27.7789 49.1233 27.8123 49.21C27.8456 49.29 27.9356 49.34 28.0823 49.36L28.6523 49.43V50H25.7423ZM27.0523 43.85C26.8189 43.85 26.6289 43.7833 26.4823 43.65C26.3423 43.5167 26.2723 43.3433 26.2723 43.13C26.2723 42.9167 26.3423 42.7433 26.4823 42.61C26.6289 42.4767 26.8189 42.41 27.0523 42.41C27.2856 42.41 27.4723 42.4767 27.6123 42.61C27.7589 42.7367 27.8323 42.9067 27.8323 43.12C27.8323 43.34 27.7589 43.5167 27.6123 43.65C27.4723 43.7833 27.2856 43.85 27.0523 43.85ZM31.1235 50L29.5435 46.04C29.5035 45.92 29.4635 45.8267 29.4235 45.76C29.3902 45.6867 29.3468 45.6333 29.2935 45.6C29.2402 45.5667 29.1702 45.54 29.0835 45.52L28.7135 45.46L28.8235 44.87H31.3935V45.43L30.9435 45.48C30.8168 45.4933 30.7402 45.5367 30.7135 45.61C30.6868 45.6833 30.7035 45.8067 30.7635 45.98L31.9035 49.01H31.9635L33.0635 46.04C33.1302 45.8733 33.1468 45.75 33.1135 45.67C33.0802 45.5833 32.9868 45.5267 32.8335 45.5L32.4335 45.43L32.5235 44.87H34.7035V45.44L34.3235 45.5C34.2035 45.52 34.1135 45.56 34.0535 45.62C34.0002 45.6733 33.9302 45.81 33.8435 46.03L32.2735 50H31.1235ZM35.3449 50V49.43L35.8249 49.36C35.9383 49.3467 36.0116 49.3067 36.0449 49.24C36.0783 49.1733 36.0949 49.0533 36.0949 48.88V46.16C36.0949 45.9333 36.0749 45.78 36.0349 45.7C35.9949 45.62 35.8983 45.5733 35.7449 45.56L35.2549 45.5L35.3249 44.91L36.8749 44.8L37.0149 44.87L37.1049 45.78H37.1449C37.3383 45.44 37.5683 45.18 37.8349 45C38.1016 44.82 38.3949 44.73 38.7149 44.73C39.0483 44.73 39.3116 44.82 39.5049 45C39.7049 45.18 39.8049 45.4233 39.8049 45.73C39.8049 45.9167 39.7783 46.0733 39.7249 46.2C39.6716 46.3267 39.5883 46.4267 39.4749 46.5C39.3683 46.5667 39.2316 46.6 39.0649 46.6C38.8583 46.6 38.7016 46.5567 38.5949 46.47C38.4883 46.3833 38.4349 46.2667 38.4349 46.12C38.4349 46.0733 38.4383 46.0233 38.4449 45.97C38.4583 45.9167 38.4783 45.8567 38.5049 45.79C38.5383 45.7167 38.5749 45.6333 38.6149 45.54C38.4616 45.4733 38.3049 45.4667 38.1449 45.52C37.9849 45.5667 37.8349 45.6567 37.6949 45.79C37.5616 45.9233 37.4516 46.09 37.3649 46.29C37.2783 46.4833 37.2349 46.6933 37.2349 46.92V48.9C37.2349 49.06 37.2516 49.1733 37.2849 49.24C37.3183 49.3 37.3949 49.3367 37.5149 49.35L38.3549 49.44V50H35.3449ZM42.8545 50.14C42.3278 50.14 41.8711 50.0367 41.4845 49.83C41.1045 49.6233 40.8111 49.3267 40.6045 48.94C40.4045 48.5467 40.3045 48.0833 40.3045 47.55C40.3045 46.95 40.4145 46.4433 40.6345 46.03C40.8611 45.61 41.1778 45.29 41.5845 45.07C41.9911 44.8433 42.4678 44.73 43.0145 44.73C43.5278 44.73 43.9745 44.83 44.3545 45.03C44.7345 45.23 45.0278 45.5233 45.2345 45.91C45.4478 46.2967 45.5545 46.7633 45.5545 47.31C45.5545 47.8967 45.4445 48.4033 45.2245 48.83C45.0111 49.25 44.7045 49.5733 44.3045 49.8C43.9045 50.0267 43.4211 50.14 42.8545 50.14ZM43.0045 49.42C43.2978 49.42 43.5411 49.35 43.7345 49.21C43.9278 49.07 44.0745 48.86 44.1745 48.58C44.2745 48.3 44.3245 47.9567 44.3245 47.55C44.3245 47.2033 44.2911 46.8967 44.2245 46.63C44.1578 46.3633 44.0611 46.1433 43.9345 45.97C43.8078 45.79 43.6511 45.6567 43.4645 45.57C43.2845 45.4767 43.0811 45.43 42.8545 45.43C42.5745 45.43 42.3345 45.5 42.1345 45.64C41.9411 45.7733 41.7911 45.9767 41.6845 46.25C41.5778 46.5167 41.5245 46.8567 41.5245 47.27C41.5245 47.73 41.5811 48.12 41.6945 48.44C41.8145 48.76 41.9845 49.0033 42.2045 49.17C42.4311 49.3367 42.6978 49.42 43.0045 49.42ZM46.587 50.14L46.447 48.4L47.097 48.36C47.197 48.6 47.317 48.8033 47.457 48.97C47.597 49.13 47.757 49.2533 47.937 49.34C48.1237 49.42 48.3237 49.46 48.537 49.46C48.8304 49.46 49.057 49.3933 49.217 49.26C49.3837 49.12 49.467 48.9333 49.467 48.7C49.467 48.56 49.4304 48.4433 49.357 48.35C49.2837 48.25 49.1604 48.1633 48.987 48.09C48.8204 48.01 48.5804 47.9333 48.267 47.86C47.987 47.7867 47.737 47.7067 47.517 47.62C47.3037 47.5267 47.1237 47.42 46.977 47.3C46.837 47.18 46.7304 47.04 46.657 46.88C46.5904 46.7133 46.557 46.5167 46.557 46.29C46.557 45.9633 46.6337 45.6833 46.787 45.45C46.9404 45.2167 47.157 45.04 47.437 44.92C47.717 44.7933 48.037 44.73 48.397 44.73C48.6237 44.73 48.8437 44.7633 49.057 44.83C49.277 44.89 49.4504 44.9667 49.577 45.06L49.657 44.73H50.197L50.307 46.38L49.657 46.33C49.577 46.03 49.4237 45.79 49.197 45.61C48.977 45.43 48.7237 45.34 48.437 45.34C48.1504 45.34 47.9304 45.3967 47.777 45.51C47.6304 45.6233 47.557 45.79 47.557 46.01C47.557 46.15 47.5904 46.27 47.657 46.37C47.7304 46.4633 47.8537 46.5467 48.027 46.62C48.2004 46.6933 48.4304 46.77 48.717 46.85C49.0237 46.93 49.287 47.0167 49.507 47.11C49.727 47.2033 49.907 47.31 50.047 47.43C50.1937 47.55 50.297 47.6933 50.357 47.86C50.4237 48.02 50.457 48.21 50.457 48.43C50.457 48.77 50.3737 49.07 50.207 49.33C50.047 49.5833 49.8237 49.7833 49.537 49.93C49.257 50.07 48.9304 50.14 48.557 50.14C48.2704 50.14 48.0137 50.1067 47.787 50.04C47.567 49.9733 47.3804 49.89 47.227 49.79L47.107 50.14H46.587ZM55.628 50.14C55.1747 50.14 54.788 50.04 54.468 49.84C54.148 49.64 53.9047 49.35 53.738 48.97C53.5714 48.5833 53.488 48.1233 53.488 47.59C53.488 47.0033 53.5914 46.4967 53.798 46.07C54.0047 45.6367 54.2947 45.3067 54.668 45.08C55.048 44.8467 55.5014 44.73 56.028 44.73C56.2614 44.73 56.488 44.76 56.708 44.82C56.9347 44.8733 57.1247 44.9467 57.278 45.04V43.63C57.278 43.41 57.2514 43.2633 57.198 43.19C57.1514 43.11 57.0347 43.06 56.848 43.04L56.358 42.98L56.428 42.39L58.298 42.34L58.418 42.46V48.94C58.418 49.0867 58.438 49.1933 58.478 49.26C58.518 49.32 58.6114 49.3633 58.758 49.39L59.248 49.46V50.03L57.528 50.09L57.388 49.29H57.338C57.198 49.4767 57.0414 49.6333 56.868 49.76C56.7014 49.8867 56.5147 49.98 56.308 50.04C56.1014 50.1067 55.8747 50.14 55.628 50.14ZM55.998 49.32C56.258 49.32 56.4814 49.26 56.668 49.14C56.8614 49.02 57.0114 48.8533 57.118 48.64C57.2247 48.42 57.278 48.17 57.278 47.89V45.88C57.118 45.7533 56.9347 45.66 56.728 45.6C56.5214 45.5333 56.3047 45.5 56.078 45.5C55.7714 45.5 55.5147 45.5733 55.308 45.72C55.1014 45.8667 54.9447 46.0867 54.838 46.38C54.738 46.6733 54.688 47.04 54.688 47.48C54.688 47.88 54.738 48.2167 54.838 48.49C54.938 48.7633 55.0847 48.97 55.278 49.11C55.478 49.25 55.718 49.32 55.998 49.32ZM62.4634 50.14C61.9367 50.14 61.4834 50.0333 61.1034 49.82C60.73 49.6067 60.44 49.3033 60.2334 48.91C60.0334 48.5167 59.9334 48.06 59.9334 47.54C59.9334 46.9533 60.04 46.4533 60.2534 46.04C60.4734 45.62 60.7767 45.2967 61.1634 45.07C61.5567 44.8433 62.01 44.73 62.5234 44.73C62.93 44.73 63.2834 44.8033 63.5834 44.95C63.8834 45.0967 64.1134 45.31 64.2734 45.59C64.44 45.8633 64.5234 46.19 64.5234 46.57C64.5234 46.73 64.5134 46.8933 64.4934 47.06C64.4734 47.2267 64.4434 47.3967 64.4034 47.57H61.1434C61.1567 47.93 61.23 48.2367 61.3634 48.49C61.5034 48.7433 61.69 48.9333 61.9234 49.06C62.1567 49.1867 62.43 49.25 62.7434 49.25C63.0167 49.25 63.2767 49.2 63.5234 49.1C63.7767 48.9933 64.0034 48.85 64.2034 48.67L64.6034 49.11C64.3567 49.4233 64.0434 49.6733 63.6634 49.86C63.29 50.0467 62.89 50.14 62.4634 50.14ZM61.1434 46.91H63.3634C63.3767 46.8367 63.3834 46.7633 63.3834 46.69C63.39 46.6167 63.3934 46.54 63.3934 46.46C63.3934 46.1133 63.31 45.8467 63.1434 45.66C62.9834 45.4733 62.7434 45.38 62.4234 45.38C62.1767 45.38 61.9634 45.44 61.7834 45.56C61.6034 45.68 61.46 45.8533 61.3534 46.08C61.2467 46.3067 61.1767 46.5833 61.1434 46.91ZM1.0143 65.16V64.58L1.4943 64.53C1.5943 64.5167 1.66763 64.4767 1.7143 64.41C1.76763 64.3433 1.7943 64.2233 1.7943 64.05V59.18C1.7943 58.9333 1.77096 58.77 1.7243 58.69C1.67763 58.61 1.5743 58.5633 1.4143 58.55L0.954297 58.5L1.0343 57.91L2.5843 57.8L2.7343 57.87L2.8043 58.75H2.8443C2.99763 58.5233 3.1643 58.3367 3.3443 58.19C3.5243 58.0367 3.7243 57.9233 3.9443 57.85C4.17096 57.77 4.42096 57.73 4.6943 57.73C5.1143 57.73 5.4743 57.83 5.7743 58.03C6.08096 58.2233 6.3143 58.51 6.4743 58.89C6.64096 59.2633 6.7243 59.7167 6.7243 60.25C6.7243 60.8567 6.63096 61.3767 6.4443 61.81C6.25763 62.2367 5.98096 62.5667 5.6143 62.8C5.24763 63.0267 4.8043 63.14 4.2843 63.14C4.03763 63.14 3.79096 63.11 3.5443 63.05C3.29763 62.9967 3.0943 62.92 2.9343 62.82V64.03C2.9343 64.19 2.95763 64.3067 3.0043 64.38C3.05096 64.4533 3.13763 64.5 3.2643 64.52L3.9243 64.59V65.16H1.0143ZM4.1543 62.37C4.44096 62.37 4.6843 62.2967 4.8843 62.15C5.09096 61.9967 5.24763 61.7733 5.3543 61.48C5.46096 61.18 5.5143 60.8167 5.5143 60.39C5.5143 59.9767 5.46763 59.6367 5.3743 59.37C5.28096 59.0967 5.1443 58.8933 4.9643 58.76C4.79096 58.62 4.56763 58.55 4.2943 58.55C4.00763 58.55 3.7643 58.6067 3.5643 58.72C3.3643 58.8333 3.20763 58.9933 3.0943 59.2C2.98763 59.4067 2.9343 59.6533 2.9343 59.94V61.99C3.06096 62.1033 3.23763 62.1967 3.4643 62.27C3.69763 62.3367 3.92763 62.37 4.1543 62.37ZM10.2368 63.14C9.71013 63.14 9.2568 63.0333 8.8768 62.82C8.50346 62.6067 8.21346 62.3033 8.0068 61.91C7.8068 61.5167 7.7068 61.06 7.7068 60.54C7.7068 59.9533 7.81346 59.4533 8.0268 59.04C8.2468 58.62 8.55013 58.2967 8.9368 58.07C9.33013 57.8433 9.78346 57.73 10.2968 57.73C10.7035 57.73 11.0568 57.8033 11.3568 57.95C11.6568 58.0967 11.8868 58.31 12.0468 58.59C12.2135 58.8633 12.2968 59.19 12.2968 59.57C12.2968 59.73 12.2868 59.8933 12.2668 60.06C12.2468 60.2267 12.2168 60.3967 12.1768 60.57H8.9168C8.93013 60.93 9.00346 61.2367 9.1368 61.49C9.2768 61.7433 9.46346 61.9333 9.6968 62.06C9.93013 62.1867 10.2035 62.25 10.5168 62.25C10.7901 62.25 11.0501 62.2 11.2968 62.1C11.5501 61.9933 11.7768 61.85 11.9768 61.67L12.3768 62.11C12.1301 62.4233 11.8168 62.6733 11.4368 62.86C11.0635 63.0467 10.6635 63.14 10.2368 63.14ZM8.9168 59.91H11.1368C11.1501 59.8367 11.1568 59.7633 11.1568 59.69C11.1635 59.6167 11.1668 59.54 11.1668 59.46C11.1668 59.1133 11.0835 58.8467 10.9168 58.66C10.7568 58.4733 10.5168 58.38 10.1968 58.38C9.95013 58.38 9.7368 58.44 9.5568 58.56C9.3768 58.68 9.23346 58.8533 9.1268 59.08C9.02013 59.3067 8.95013 59.5833 8.9168 59.91ZM13.2453 63V62.43L13.7253 62.36C13.8386 62.3467 13.912 62.3067 13.9453 62.24C13.9786 62.1733 13.9953 62.0533 13.9953 61.88V59.16C13.9953 58.9333 13.9753 58.78 13.9353 58.7C13.8953 58.62 13.7986 58.5733 13.6453 58.56L13.1553 58.5L13.2253 57.91L14.7753 57.8L14.9153 57.87L15.0053 58.78H15.0453C15.2386 58.44 15.4686 58.18 15.7353 58C16.002 57.82 16.2953 57.73 16.6153 57.73C16.9486 57.73 17.212 57.82 17.4053 58C17.6053 58.18 17.7053 58.4233 17.7053 58.73C17.7053 58.9167 17.6786 59.0733 17.6253 59.2C17.572 59.3267 17.4886 59.4267 17.3753 59.5C17.2686 59.5667 17.132 59.6 16.9653 59.6C16.7586 59.6 16.602 59.5567 16.4953 59.47C16.3886 59.3833 16.3353 59.2667 16.3353 59.12C16.3353 59.0733 16.3386 59.0233 16.3453 58.97C16.3586 58.9167 16.3786 58.8567 16.4053 58.79C16.4386 58.7167 16.4753 58.6333 16.5153 58.54C16.362 58.4733 16.2053 58.4667 16.0453 58.52C15.8853 58.5667 15.7353 58.6567 15.5953 58.79C15.462 58.9233 15.352 59.09 15.2653 59.29C15.1786 59.4833 15.1353 59.6933 15.1353 59.92V61.9C15.1353 62.06 15.152 62.1733 15.1853 62.24C15.2186 62.3 15.2953 62.3367 15.4153 62.35L16.2553 62.44V63H13.2453ZM18.3918 63V62.43L18.8718 62.37C18.9785 62.35 19.0485 62.31 19.0818 62.25C19.1218 62.19 19.1418 62.07 19.1418 61.89V59.15C19.1418 58.9233 19.1218 58.7733 19.0818 58.7C19.0418 58.62 18.9451 58.57 18.7918 58.55L18.3018 58.5L18.3718 57.91L19.9418 57.8L20.0818 57.87L20.1518 58.77H20.1918C20.3785 58.45 20.6318 58.1967 20.9518 58.01C21.2785 57.8233 21.6351 57.73 22.0218 57.73C22.3951 57.73 22.7051 57.7967 22.9518 57.93C23.2051 58.0633 23.3951 58.2567 23.5218 58.51C23.6551 58.7633 23.7218 59.0733 23.7218 59.44V61.97C23.7218 62.11 23.7418 62.21 23.7818 62.27C23.8218 62.3233 23.9085 62.36 24.0418 62.38L24.5118 62.43V63H21.8818V62.44L22.2818 62.38C22.4018 62.36 22.4818 62.3233 22.5218 62.27C22.5618 62.2167 22.5818 62.1167 22.5818 61.97V59.79C22.5818 59.5033 22.5518 59.2733 22.4918 59.1C22.4318 58.9267 22.3318 58.7967 22.1918 58.71C22.0518 58.6233 21.8585 58.58 21.6118 58.58C21.3451 58.58 21.1118 58.6333 20.9118 58.74C20.7118 58.8467 20.5551 59 20.4418 59.2C20.3351 59.3933 20.2818 59.63 20.2818 59.91V61.93C20.2818 62.0767 20.2985 62.1833 20.3318 62.25C20.3718 62.31 20.4418 62.35 20.5418 62.37L21.0218 62.44V63H18.3918ZM26.8342 63.14C26.3876 63.14 26.0276 63.0167 25.7542 62.77C25.4876 62.5167 25.3542 62.1833 25.3542 61.77C25.3542 61.39 25.4509 61.0867 25.6442 60.86C25.8376 60.6267 26.1509 60.4533 26.5842 60.34C27.0242 60.2267 27.6076 60.1533 28.3342 60.12V59.44C28.3342 59.1933 28.3009 58.9867 28.2342 58.82C28.1676 58.6533 28.0576 58.5267 27.9042 58.44C27.7509 58.3533 27.5409 58.31 27.2742 58.31C27.1009 58.31 26.9276 58.3367 26.7542 58.39C26.5876 58.4367 26.4642 58.5 26.3842 58.58C26.4442 58.68 26.4942 58.77 26.5342 58.85C26.5742 58.9233 26.6009 58.9867 26.6142 59.04C26.6342 59.0867 26.6442 59.13 26.6442 59.17C26.6442 59.3033 26.5842 59.4167 26.4642 59.51C26.3509 59.6033 26.2009 59.65 26.0142 59.65C25.8142 59.65 25.6576 59.6 25.5442 59.5C25.4376 59.4 25.3842 59.2567 25.3842 59.07C25.3842 58.83 25.4776 58.61 25.6642 58.41C25.8509 58.2033 26.1009 58.04 26.4142 57.92C26.7276 57.7933 27.0742 57.73 27.4542 57.73C27.9142 57.73 28.2942 57.7967 28.5942 57.93C28.8942 58.0633 29.1142 58.2667 29.2542 58.54C29.4009 58.8133 29.4742 59.1533 29.4742 59.56V61.9C29.4742 62.0467 29.5109 62.1567 29.5842 62.23C29.6576 62.3033 29.7709 62.34 29.9242 62.34C30.0042 62.34 30.0809 62.3333 30.1542 62.32C30.2276 62.3067 30.3076 62.2867 30.3942 62.26L30.5142 62.73C30.3942 62.8367 30.2342 62.93 30.0342 63.01C29.8409 63.0967 29.6509 63.14 29.4642 63.14C29.1576 63.14 28.9209 63.0667 28.7542 62.92C28.5876 62.7667 28.4842 62.5533 28.4442 62.28C28.3242 62.46 28.1842 62.6167 28.0242 62.75C27.8709 62.8767 27.6942 62.9733 27.4942 63.04C27.3009 63.1067 27.0809 63.14 26.8342 63.14ZM27.2942 62.37C27.4942 62.37 27.6709 62.33 27.8242 62.25C27.9776 62.1633 28.1009 62.0467 28.1942 61.9C28.2876 61.7533 28.3342 61.59 28.3342 61.41V60.72C27.9209 60.72 27.5776 60.7533 27.3042 60.82C27.0376 60.8867 26.8409 60.9867 26.7142 61.12C26.5876 61.2533 26.5242 61.4267 26.5242 61.64C26.5242 61.8667 26.5909 62.0467 26.7242 62.18C26.8642 62.3067 27.0542 62.37 27.2942 62.37ZM31.0578 63V62.43L31.5378 62.37C31.6445 62.35 31.7145 62.31 31.7478 62.25C31.7878 62.19 31.8078 62.07 31.8078 61.89V59.16C31.8078 58.9267 31.7878 58.7733 31.7478 58.7C31.7078 58.62 31.6111 58.57 31.4578 58.55L30.9678 58.5L31.0378 57.91L32.6078 57.8L32.7478 57.87L32.8178 58.77H32.8578C32.9845 58.5567 33.1345 58.3733 33.3078 58.22C33.4878 58.06 33.6878 57.94 33.9078 57.86C34.1345 57.7733 34.3678 57.73 34.6078 57.73C35.0211 57.73 35.3545 57.82 35.6078 58C35.8678 58.1733 36.0511 58.43 36.1578 58.77C36.3178 58.45 36.5578 58.1967 36.8778 58.01C37.2045 57.8233 37.5478 57.73 37.9078 57.73C38.2611 57.73 38.5578 57.8 38.7978 57.94C39.0445 58.0733 39.2278 58.2667 39.3478 58.52C39.4745 58.7733 39.5378 59.08 39.5378 59.44V61.97C39.5378 62.11 39.5578 62.21 39.5978 62.27C39.6378 62.3233 39.7245 62.36 39.8578 62.38L40.3278 62.43V63H37.7478V62.44L38.0878 62.39C38.2145 62.3633 38.2978 62.3233 38.3378 62.27C38.3778 62.2167 38.3978 62.1133 38.3978 61.96V59.77C38.3978 59.49 38.3678 59.2633 38.3078 59.09C38.2545 58.9167 38.1645 58.79 38.0378 58.71C37.9111 58.6233 37.7345 58.58 37.5078 58.58C37.2611 58.58 37.0411 58.6333 36.8478 58.74C36.6611 58.8467 36.5145 58.9967 36.4078 59.19C36.3011 59.3833 36.2478 59.6133 36.2478 59.88V61.93C36.2478 62.09 36.2645 62.2 36.2978 62.26C36.3311 62.3133 36.4045 62.35 36.5178 62.37L36.9278 62.44V63H34.4578V62.44L34.7978 62.39C34.9111 62.3633 34.9878 62.3267 35.0278 62.28C35.0745 62.2267 35.0978 62.12 35.0978 61.96V59.77C35.0978 59.4833 35.0711 59.2533 35.0178 59.08C34.9645 58.9067 34.8711 58.78 34.7378 58.7C34.6111 58.62 34.4345 58.58 34.2078 58.58C33.9611 58.58 33.7445 58.6333 33.5578 58.74C33.3711 58.8467 33.2211 58.9967 33.1078 59.19C33.0011 59.3833 32.9478 59.6133 32.9478 59.88V61.93C32.9478 62.0767 32.9645 62.18 32.9978 62.24C33.0311 62.3 33.1011 62.34 33.2078 62.36L33.6278 62.44V63H31.0578ZM41.8802 63.12L41.4502 63.05V56.66C41.4502 56.4267 41.4235 56.2733 41.3702 56.2C41.3235 56.12 41.2035 56.07 41.0102 56.05L40.5502 56L40.6102 55.4L42.4602 55.34L42.5902 55.45V58.59L42.6002 58.63C42.7468 58.4233 42.9035 58.2533 43.0702 58.12C43.2435 57.9867 43.4335 57.89 43.6402 57.83C43.8535 57.7633 44.0835 57.73 44.3302 57.73C44.7502 57.73 45.1102 57.83 45.4102 58.03C45.7168 58.2233 45.9535 58.5067 46.1202 58.88C46.2868 59.2533 46.3702 59.7033 46.3702 60.23C46.3702 60.8367 46.2735 61.3567 46.0802 61.79C45.8935 62.2233 45.6168 62.5567 45.2502 62.79C44.8835 63.0233 44.4302 63.14 43.8902 63.14C43.6035 63.14 43.3302 63.1 43.0702 63.02C42.8102 62.94 42.5735 62.8233 42.3602 62.67L41.8802 63.12ZM43.7802 62.39C44.0602 62.39 44.3002 62.3167 44.5002 62.17C44.7068 62.0233 44.8668 61.8 44.9802 61.5C45.0935 61.2 45.1502 60.8267 45.1502 60.38C45.1502 59.9533 45.1035 59.6067 45.0102 59.34C44.9168 59.0733 44.7802 58.8767 44.6002 58.75C44.4202 58.6167 44.1968 58.55 43.9302 58.55C43.6568 58.55 43.4168 58.6067 43.2102 58.72C43.0102 58.8267 42.8568 58.9833 42.7502 59.19C42.6435 59.39 42.5902 59.6367 42.5902 59.93V61.98C42.7368 62.1067 42.9135 62.2067 43.1202 62.28C43.3335 62.3533 43.5535 62.39 43.7802 62.39ZM49.508 63.14C48.968 63.14 48.5547 62.9933 48.268 62.7C47.988 62.4067 47.848 61.9833 47.848 61.43V59.17C47.848 58.9433 47.828 58.79 47.788 58.71C47.748 58.6233 47.6514 58.57 47.498 58.55L47.068 58.5L47.148 57.91L48.858 57.8L48.988 57.87V61.1C48.988 61.3867 49.0147 61.62 49.068 61.8C49.1214 61.9733 49.2147 62.1 49.348 62.18C49.488 62.26 49.6747 62.3 49.908 62.3C50.1814 62.3 50.4114 62.2433 50.598 62.13C50.7914 62.0167 50.9414 61.8567 51.048 61.65C51.1547 61.4433 51.208 61.2033 51.208 60.93V59.17C51.208 58.9433 51.188 58.79 51.148 58.71C51.108 58.6233 51.0114 58.57 50.858 58.55L50.418 58.5L50.508 57.91L52.208 57.8L52.348 57.87V61.88C52.348 62.0467 52.368 62.1633 52.408 62.23C52.4547 62.2967 52.5447 62.34 52.678 62.36L53.158 62.43V63L51.428 63.06L51.278 62.24H51.248C51.0814 62.44 50.9114 62.6067 50.738 62.74C50.5647 62.8667 50.378 62.9633 50.178 63.03C49.978 63.1033 49.7547 63.14 49.508 63.14ZM56.4173 63.14C55.9039 63.14 55.4606 63.0333 55.0873 62.82C54.7206 62.6067 54.4373 62.3033 54.2373 61.91C54.0373 61.5167 53.9373 61.05 53.9373 60.51C53.9373 59.95 54.0439 59.4633 54.2573 59.05C54.4706 58.63 54.7706 58.3067 55.1573 58.08C55.5439 57.8467 55.9973 57.73 56.5173 57.73C56.8973 57.73 57.2339 57.79 57.5273 57.91C57.8206 58.03 58.0473 58.1933 58.2073 58.4C58.3739 58.6 58.4573 58.8267 58.4573 59.08C58.4573 59.22 58.4273 59.3433 58.3673 59.45C58.3139 59.5567 58.2339 59.64 58.1273 59.7C58.0206 59.76 57.8906 59.79 57.7373 59.79C57.5306 59.79 57.3706 59.7467 57.2573 59.66C57.1439 59.5667 57.0873 59.44 57.0873 59.28C57.0873 59.2067 57.1073 59.12 57.1473 59.02C57.1873 58.92 57.2573 58.7867 57.3573 58.62C57.2373 58.54 57.1073 58.4833 56.9673 58.45C56.8339 58.41 56.6706 58.39 56.4773 58.39C56.2239 58.39 55.9939 58.4633 55.7873 58.61C55.5873 58.75 55.4273 58.96 55.3073 59.24C55.1939 59.5133 55.1373 59.85 55.1373 60.25C55.1373 60.91 55.2773 61.4067 55.5573 61.74C55.8439 62.0733 56.2306 62.24 56.7173 62.24C56.9906 62.24 57.2406 62.1933 57.4673 62.1C57.7006 62 57.9139 61.87 58.1073 61.71L58.4973 62.16C58.2639 62.4467 57.9673 62.6833 57.6073 62.87C57.2539 63.05 56.8573 63.14 56.4173 63.14ZM61.8291 63.14C61.3024 63.14 60.8457 63.0367 60.4591 62.83C60.0791 62.6233 59.7857 62.3267 59.5791 61.94C59.3791 61.5467 59.2791 61.0833 59.2791 60.55C59.2791 59.95 59.3891 59.4433 59.6091 59.03C59.8357 58.61 60.1524 58.29 60.5591 58.07C60.9657 57.8433 61.4424 57.73 61.9891 57.73C62.5024 57.73 62.9491 57.83 63.3291 58.03C63.7091 58.23 64.0024 58.5233 64.2091 58.91C64.4224 59.2967 64.5291 59.7633 64.5291 60.31C64.5291 60.8967 64.4191 61.4033 64.1991 61.83C63.9857 62.25 63.6791 62.5733 63.2791 62.8C62.8791 63.0267 62.3957 63.14 61.8291 63.14ZM61.9791 62.42C62.2724 62.42 62.5157 62.35 62.7091 62.21C62.9024 62.07 63.0491 61.86 63.1491 61.58C63.2491 61.3 63.2991 60.9567 63.2991 60.55C63.2991 60.2033 63.2657 59.8967 63.1991 59.63C63.1324 59.3633 63.0357 59.1433 62.9091 58.97C62.7824 58.79 62.6257 58.6567 62.4391 58.57C62.2591 58.4767 62.0557 58.43 61.8291 58.43C61.5491 58.43 61.3091 58.5 61.1091 58.64C60.9157 58.7733 60.7657 58.9767 60.6591 59.25C60.5524 59.5167 60.4991 59.8567 60.4991 60.27C60.4991 60.73 60.5557 61.12 60.6691 61.44C60.7891 61.76 60.9591 62.0033 61.1791 62.17C61.4057 62.3367 61.6724 62.42 61.9791 62.42Z" fill="white"/>
<path d="M72.312 35V33.272L73.592 33.048C73.912 32.984 74.1253 32.856 74.232 32.664C74.3387 32.472 74.392 32.0987 74.392 31.544V22.616C74.392 21.9333 74.328 21.464 74.2 21.208C74.072 20.952 73.7733 20.792 73.304 20.728L72.024 20.568L72.216 18.712L78.52 18.328L78.904 18.584L79.096 21.592H79.16C79.672 20.4827 80.408 19.6293 81.368 19.032C82.3493 18.4133 83.4907 18.104 84.792 18.104C86.008 18.104 87.0107 18.3387 87.8 18.808C88.5893 19.256 89.176 19.896 89.56 20.728C89.944 21.56 90.136 22.552 90.136 23.704V31.768C90.136 32.2373 90.2 32.5573 90.328 32.728C90.456 32.8987 90.712 33.016 91.096 33.08L92.28 33.272V35H83.192V33.272L84.184 33.112C84.5467 33.048 84.7813 32.9307 84.888 32.76C84.9947 32.568 85.048 32.2373 85.048 31.768V24.536C85.048 23.6613 84.9733 22.9787 84.824 22.488C84.6747 21.976 84.4293 21.6133 84.088 21.4C83.7467 21.1867 83.288 21.08 82.712 21.08C82.0933 21.08 81.5387 21.2293 81.048 21.528C80.5573 21.8053 80.1733 22.232 79.896 22.808C79.6187 23.384 79.48 24.0987 79.48 24.952V31.672C79.48 32.1627 79.5227 32.504 79.608 32.696C79.7147 32.888 79.928 33.016 80.248 33.08L81.368 33.272V35H72.312ZM99.0793 35.448C97.5646 35.448 96.3806 35.064 95.5273 34.296C94.6739 33.5067 94.2473 32.44 94.2473 31.096C94.2473 29.8587 94.5566 28.888 95.1753 28.184C95.8153 27.4587 96.8073 26.9253 98.1513 26.584C99.5166 26.2427 101.298 26.0293 103.495 25.944V23.256C103.495 22.4667 103.41 21.816 103.239 21.304C103.069 20.792 102.781 20.4187 102.375 20.184C101.97 19.9493 101.426 19.832 100.743 19.832C100.231 19.832 99.7086 19.9173 99.1753 20.088C98.6419 20.2373 98.2259 20.44 97.9273 20.696C98.2259 21.08 98.4499 21.4213 98.5993 21.72C98.7699 21.9973 98.8873 22.232 98.9513 22.424C99.0153 22.616 99.0473 22.7867 99.0473 22.936C99.0473 23.4053 98.8446 23.8 98.4393 24.12C98.0339 24.44 97.4579 24.6 96.7113 24.6C95.9646 24.6 95.3993 24.4293 95.0153 24.088C94.6526 23.7253 94.4713 23.2453 94.4713 22.648C94.4713 21.8373 94.7699 21.0907 95.3673 20.408C95.9859 19.7253 96.8286 19.1813 97.8953 18.776C98.9619 18.3493 100.21 18.136 101.639 18.136C103.197 18.136 104.487 18.3493 105.511 18.776C106.535 19.2027 107.303 19.8747 107.815 20.792C108.327 21.688 108.583 22.8507 108.583 24.28V31.32C108.583 31.832 108.679 32.2053 108.871 32.44C109.063 32.6747 109.373 32.792 109.799 32.792C110.013 32.792 110.226 32.7707 110.439 32.728C110.653 32.6853 110.877 32.6213 111.111 32.536L111.431 33.944C110.962 34.392 110.375 34.7547 109.671 35.032C108.989 35.3093 108.295 35.448 107.591 35.448C106.525 35.448 105.693 35.2027 105.095 34.712C104.498 34.2 104.114 33.528 103.943 32.696C103.666 33.2293 103.303 33.7093 102.855 34.136C102.407 34.5413 101.874 34.8613 101.255 35.096C100.637 35.3307 99.9113 35.448 99.0793 35.448ZM101.159 32.92C101.629 32.92 102.034 32.8133 102.375 32.6C102.738 32.3867 103.015 32.088 103.207 31.704C103.399 31.32 103.495 30.872 103.495 30.36V27.608C102.514 27.608 101.703 27.7147 101.063 27.928C100.445 28.12 99.9859 28.4293 99.6873 28.856C99.4099 29.2827 99.2713 29.848 99.2713 30.552C99.2713 31.32 99.4206 31.9067 99.7193 32.312C100.039 32.7173 100.519 32.92 101.159 32.92ZM112.375 35V33.272L113.655 33.048C113.975 32.984 114.188 32.856 114.295 32.664C114.401 32.472 114.455 32.0987 114.455 31.544V22.616C114.455 21.9333 114.391 21.464 114.263 21.208C114.135 20.952 113.836 20.792 113.367 20.728L112.087 20.568L112.279 18.712L118.583 18.328L118.967 18.584L119.159 21.592H119.223C119.735 20.4827 120.471 19.6293 121.431 19.032C122.412 18.4133 123.553 18.104 124.855 18.104C126.071 18.104 127.073 18.3387 127.863 18.808C128.652 19.256 129.239 19.896 129.623 20.728C130.007 21.56 130.199 22.552 130.199 23.704V31.768C130.199 32.2373 130.263 32.5573 130.391 32.728C130.519 32.8987 130.775 33.016 131.159 33.08L132.343 33.272V35H123.255V33.272L124.247 33.112C124.609 33.048 124.844 32.9307 124.951 32.76C125.057 32.568 125.111 32.2373 125.111 31.768V24.536C125.111 23.6613 125.036 22.9787 124.887 22.488C124.737 21.976 124.492 21.6133 124.151 21.4C123.809 21.1867 123.351 21.08 122.775 21.08C122.156 21.08 121.601 21.2293 121.111 21.528C120.62 21.8053 120.236 22.232 119.959 22.808C119.681 23.384 119.543 24.0987 119.543 24.952V31.672C119.543 32.1627 119.585 32.504 119.671 32.696C119.777 32.888 119.991 33.016 120.311 33.08L121.431 33.272V35H112.375Z" fill="white"/>
<path d="M88.408 62.352C87.8107 62.352 87.2667 62.2667 86.776 62.096C86.2853 61.9467 85.816 61.68 85.368 61.296C84.92 60.912 84.4613 60.3893 83.992 59.728L79.704 53.648V53.2L84.6 48.752C84.9413 48.4747 85.112 48.2187 85.112 47.984C85.112 47.728 84.9307 47.568 84.568 47.504L83.224 47.312L83.544 45.552H90.968V47.344L89.848 47.568C89.5067 47.632 89.1653 47.7493 88.824 47.92C88.504 48.0693 88.1307 48.3467 87.704 48.752L84.12 51.952L88.408 57.712C88.8773 58.3733 89.2827 58.8533 89.624 59.152C89.9867 59.4507 90.4027 59.6 90.872 59.6C91.0427 59.6 91.224 59.5787 91.416 59.536C91.608 59.4933 91.832 59.4293 92.088 59.344L92.472 60.752C92.0027 61.2213 91.4053 61.6053 90.68 61.904C89.9547 62.2027 89.1973 62.352 88.408 62.352ZM72.024 62V60.24L73.368 60.048C73.7307 59.984 73.976 59.856 74.104 59.664C74.232 59.472 74.296 59.088 74.296 58.512V41.712C74.296 41.008 74.2213 40.528 74.072 40.272C73.944 40.016 73.6133 39.856 73.08 39.792L71.896 39.632L72.056 37.744L78.968 37.456L79.352 37.776V58.576C79.352 59.0453 79.4053 59.3867 79.512 59.6C79.6187 59.8133 79.8747 59.9627 80.28 60.048L81.208 60.24V62H72.024ZM93.4005 62V60.24L94.8405 60.016C95.2032 59.9733 95.4378 59.8453 95.5445 59.632C95.6512 59.4187 95.7045 59.0347 95.7045 58.48V49.744C95.7045 49.0187 95.6405 48.528 95.5125 48.272C95.3845 47.9947 95.0752 47.824 94.5845 47.76L93.3365 47.6L93.4965 45.712L100.377 45.392L100.793 45.616V58.544C100.793 59.0133 100.835 59.3653 100.921 59.6C101.027 59.8133 101.283 59.952 101.689 60.016L103.097 60.272V62H93.4005ZM97.8165 42.672C96.8565 42.672 96.0992 42.4267 95.5445 41.936C94.9898 41.4453 94.7125 40.784 94.7125 39.952C94.7125 39.1413 94.9792 38.4907 95.5125 38C96.0672 37.5093 96.8352 37.264 97.8165 37.264C98.8405 37.264 99.6192 37.5093 100.153 38C100.686 38.4693 100.953 39.12 100.953 39.952C100.953 40.784 100.665 41.4453 100.089 41.936C99.5338 42.4267 98.7765 42.672 97.8165 42.672ZM105.187 62V60.272L106.467 60.048C106.787 59.984 107 59.856 107.107 59.664C107.214 59.472 107.267 59.0987 107.267 58.544V49.616C107.267 48.9333 107.203 48.464 107.075 48.208C106.947 47.952 106.648 47.792 106.179 47.728L104.899 47.568L105.091 45.712L111.395 45.328L111.779 45.584L111.971 48.592H112.035C112.547 47.4827 113.283 46.6293 114.243 46.032C115.224 45.4133 116.366 45.104 117.667 45.104C118.883 45.104 119.886 45.3387 120.675 45.808C121.464 46.256 122.051 46.896 122.435 47.728C122.819 48.56 123.011 49.552 123.011 50.704V58.768C123.011 59.2373 123.075 59.5573 123.203 59.728C123.331 59.8987 123.587 60.016 123.971 60.08L125.155 60.272V62H116.067V60.272L117.059 60.112C117.422 60.048 117.656 59.9307 117.763 59.76C117.87 59.568 117.923 59.2373 117.923 58.768V51.536C117.923 50.6613 117.848 49.9787 117.699 49.488C117.55 48.976 117.304 48.6133 116.963 48.4C116.622 48.1867 116.163 48.08 115.587 48.08C114.968 48.08 114.414 48.2293 113.923 48.528C113.432 48.8053 113.048 49.232 112.771 49.808C112.494 50.384 112.355 51.0987 112.355 51.952V58.672C112.355 59.1627 112.398 59.504 112.483 59.696C112.59 59.888 112.803 60.016 113.123 60.08L114.243 60.272V62H105.187Z" fill="white"/>
</g>
<defs>
<clipPath id="clip0_203_39">
<rect width="151" height="75" fill="white"/>
</clipPath>
</defs>
</svg>
